<svg xmlns="http://www.w3.org/2000/svg" xmlns:xlink="http://www.w3.org/1999/xlink" width="1171.565" height="1171.565" viewBox="0 0 1171.565 1171.565"><defs><filter id="a" x="0" y="0" width="1171.565" height="1171.565" filterUnits="userSpaceOnUse"><feOffset dx="3" dy="3" input="SourceAlpha"/><feGaussianBlur stdDeviation="49.5" result="b"/><feFlood flood-opacity="0.078"/><feComposite operator="in" in2="b"/><feComposite in="SourceGraphic"/></filter><filter id="c" x="55.283" y="55.284" width="1063" height="1063" filterUnits="userSpaceOnUse"><feOffset dx="3" dy="3" input="SourceAlpha"/><feGaussianBlur stdDeviation="49.5" result="d"/><feFlood flood-opacity="0.02"/><feComposite operator="in" in2="d"/><feComposite in="SourceGraphic"/></filter><filter id="e" x="112.283" y="112.284" width="947" height="947" filterUnits="userSpaceOnUse"><feOffset dx="3" dy="3" input="SourceAlpha"/><feGaussianBlur stdDeviation="49.5" result="f"/><feFlood flood-opacity="0.09"/><feComposite operator="in" in2="f"/><feComposite in="SourceGraphic"/></filter></defs><g transform="translate(-372.217 263.5)"><g transform="matrix(1, 0, 0, 1, 372.22, -263.5)" filter="url(#a)"><g transform="translate(145.5 145.5)" fill="none" stroke-linejoin="bevel" stroke-dasharray="2 44"><path d="M437.283,0c241.5,0,437.283,195.778,437.283,437.283S678.787,874.565,437.283,874.565,0,678.787,0,437.283,195.778,0,437.283,0Z" stroke="none"/><path d="M 437.28271484375 -6.103515625e-05 C 437.3269348144531 -6.103515625e-05 437.3924255371094 -6.103515625e-05 437.4366149902344 -6.103515625e-05 C 437.4552307128906 0 437.4738464355469 0 437.4924621582031 0 C 437.5219421386719 0 437.5579528808594 0 437.5874328613281 6.103515625e-05 C 437.9725646972656 0.00030517578125 438.3575744628906 0.0010986328125 438.7424926757813 0.0023193359375 C 438.9192504882813 0.0029296875 439.1106872558594 0.003662109375 439.2873840332031 0.00445556640625 L 439.2783813476563 2.00439453125 C 438.6163940429688 2.00146484375 437.9449462890625 1.99993896484375 437.28271484375 1.99993896484375 L 437.28271484375 -6.103515625e-05 C 437.28271484375 -6.103515625e-05 437.28271484375 -6.103515625e-05 437.28271484375 -6.103515625e-05 Z M 483.205810546875 2.38250732421875 C 483.3636169433594 2.39898681640625 483.5211181640625 2.41552734375 483.6788635253906 2.43212890625 C 484.1722412109375 2.48419189453125 484.6654052734375 2.53704833984375 485.1583557128906 2.5906982421875 C 485.1583557128906 2.5906982421875 485.196044921875 2.5948486328125 485.196044921875 2.5948486328125 L 484.9793701171875 4.58306884765625 C 484.322265625 4.511474609375 483.6557006835938 4.44036865234375 482.9981689453125 4.3717041015625 L 483.2058410644531 2.38250732421875 Z M 528.6231689453125 9.5540771484375 C 529.2750244140625 9.692626953125 529.926513671875 9.83258056640625 530.577392578125 9.97406005859375 L 530.1527099609375 11.92840576171875 C 529.507568359375 11.78826904296875 528.8531494140625 11.6475830078125 528.2073974609375 11.5103759765625 L 528.6231689453125 9.5540771484375 Z M 573.025634765625 21.4781494140625 C 573.2229614257813 21.54254150390625 573.420166015625 21.6070556640625 573.617431640625 21.67169189453125 C 573.617431640625 21.67169189453125 573.6250610351563 21.6741943359375 573.6250610351563 21.6741943359375 C 573.73095703125 21.70892333984375 573.8367919921875 21.74365234375 573.9427490234375 21.77850341796875 C 573.9559936523438 21.7828369140625 573.977783203125 21.7900390625 573.9910888671875 21.79437255859375 C 574.021484375 21.80438232421875 574.0518798828125 21.81439208984375 574.0823974609375 21.82440185546875 C 574.0956420898438 21.82879638671875 574.101318359375 21.83062744140625 574.1146240234375 21.83502197265625 C 574.3853149414063 21.92413330078125 574.6559448242188 22.0135498046875 574.9263916015625 22.1031494140625 L 574.29736328125 24.0015869140625 C 573.6700439453125 23.793701171875 573.033447265625 23.58447265625 572.4052734375 23.3795166015625 L 573.025634765625 21.4781494140625 Z M 615.9224853515625 38.03485107421875 C 616.302734375 38.2052001953125 616.6826782226563 38.3760986328125 617.0623779296875 38.547607421875 C 617.0623779296875 38.547607421875 617.0625610351563 38.54766845703125 617.0625610351563 38.54766845703125 C 617.09033203125 38.56024169921875 617.1181030273438 38.57275390625 617.1458740234375 38.5853271484375 C 617.171142578125 38.5966796875 617.173095703125 38.59759521484375 617.1983032226563 38.6090087890625 C 617.2230834960938 38.62017822265625 617.247802734375 38.63134765625 617.2725830078125 38.642578125 C 617.2977905273438 38.65399169921875 617.3170166015625 38.66265869140625 617.3422241210938 38.674072265625 C 617.3643798828125 38.68408203125 617.3865356445313 38.69415283203125 617.40869140625 38.70416259765625 C 617.446533203125 38.7213134765625 617.4840087890625 38.73828125 617.5218505859375 38.75537109375 C 617.549072265625 38.76776123046875 617.576416015625 38.78009033203125 617.6036376953125 38.79248046875 C 617.6162719726563 38.7982177734375 617.6337890625 38.80609130859375 617.6463623046875 38.81182861328125 C 617.6795654296875 38.826904296875 617.712646484375 38.8419189453125 617.745849609375 38.85693359375 L 616.9194946289063 40.67828369140625 C 616.3179321289063 40.4053955078125 615.7073974609375 40.13006591796875 615.1046142578125 39.85992431640625 L 615.9224853515625 38.03485107421875 Z M 656.829345703125 59.0257568359375 C 657.3285522460938 59.31610107421875 657.8480224609375 59.61968994140625 658.3458862304688 59.9119873046875 C 658.37841796875 59.9310302734375 658.4109497070313 59.95013427734375 658.4434814453125 59.96923828125 C 658.4434814453125 59.96923828125 658.4495849609375 59.97283935546875 658.4495849609375 59.97283935546875 C 658.4849243164063 59.99365234375 658.520263671875 60.014404296875 658.5556030273438 60.03515625 L 657.5420532226563 61.75927734375 C 656.9727172851563 61.42462158203125 656.3945922851563 61.08660888671875 655.82373046875 60.7545166015625 L 656.829345703125 59.02569580078125 Z M 695.304931640625 84.2008056640625 C 695.4707641601563 84.32220458984375 695.6365356445313 84.4437255859375 695.8021850585938 84.5653076171875 C 695.813232421875 84.57342529296875 695.8199462890625 84.578369140625 695.8309936523438 84.58648681640625 C 695.8511962890625 84.601318359375 695.8714599609375 84.61614990234375 695.8916625976563 84.63104248046875 C 696.2337646484375 84.88226318359375 696.5748291015625 85.1336669921875 696.9161376953125 85.3858642578125 L 695.7274780273438 86.9942626953125 C 695.1962890625 86.6016845703125 694.6566162109375 86.204833984375 694.1235961914063 85.8145751953125 L 695.304931640625 84.2008056640625 Z M 730.9338989257813 113.26416015625 C 731.0958251953125 113.4110717773438 731.2556762695313 113.5562133789063 731.4174194335938 113.7033081054688 C 731.4229736328125 113.7083129882813 731.4285278320313 113.71337890625 731.43408203125 113.7184448242188 C 731.4744873046875 113.7551879882813 731.49365234375 113.7726440429688 731.5340576171875 113.8094482421875 C 731.539794921875 113.8146362304688 731.5454711914063 113.81982421875 731.5512084960938 113.8250122070313 C 731.8341064453125 114.0825805664063 732.1085815429688 114.3330688476563 732.3908081054688 114.59130859375 C 732.3915405273438 114.5919799804688 732.3922729492188 114.5926513671875 732.3930053710938 114.5933227539063 C 732.403076171875 114.6025390625 732.4022827148438 114.601806640625 732.412353515625 114.6110229492188 L 731.0621337890625 116.0864868164063 C 730.5748291015625 115.6405029296875 730.0797119140625 115.1893920898438 729.5903930664063 114.7457275390625 L 730.9339599609375 113.26416015625 Z M 763.3339233398438 145.8887329101563 C 763.58154296875 146.1655883789063 763.828857421875 146.4428100585938 764.0757446289063 146.7202758789063 C 764.0848388671875 146.7305297851563 764.087646484375 146.733642578125 764.0967407226563 146.743896484375 C 764.1192626953125 146.7691650390625 764.1417236328125 146.79443359375 764.1642456054688 146.8197631835938 C 764.1642456054688 146.8197631835938 764.1844482421875 146.842529296875 764.1844482421875 146.842529296875 C 764.2295532226563 146.8931884765625 764.2745971679688 146.9439086914063 764.3196411132813 146.99462890625 C 764.3286743164063 147.0048217773438 764.3258056640625 147.0015869140625 764.3348999023438 147.0117797851563 C 764.4446411132813 147.1353149414063 764.5542602539063 147.2589111328125 764.663818359375 147.3826293945313 L 763.1670532226563 148.7090454101563 C 762.7289428710938 148.2147216796875 762.2835083007813 147.71435546875 761.8431396484375 147.2220458984375 L 763.3339233398438 145.8887329101563 Z M 792.1508178710938 181.7183837890625 C 792.2549438476563 181.86279296875 792.3494262695313 181.993896484375 792.453369140625 182.1383666992188 C 792.4559326171875 182.1419067382813 792.4584350585938 182.1453857421875 792.4609985351563 182.14892578125 C 792.4849853515625 182.1822509765625 792.5090942382813 182.2158203125 792.5330810546875 182.2491455078125 C 792.5460815429688 182.2672119140625 792.5589599609375 182.28515625 792.5719604492188 182.30322265625 C 792.5879516601563 182.325439453125 792.5999755859375 182.3421630859375 792.615966796875 182.3644409179688 C 792.6303100585938 182.3843994140625 792.6446533203125 182.4043579101563 792.6590576171875 182.4243774414063 C 792.6829833984375 182.4577026367188 792.7081298828125 182.49267578125 792.7320556640625 182.5260620117188 C 792.744873046875 182.5439453125 792.7577514648438 182.5618286132813 792.7705688476563 182.5797119140625 C 792.7865600585938 182.6019287109375 792.8068237304688 182.6301879882813 792.82275390625 182.6524658203125 C 792.8340454101563 182.6680908203125 792.84521484375 182.6837768554688 792.8565063476563 182.6994018554688 C 792.8724365234375 182.7216796875 792.8992919921875 182.7590942382813 792.9152221679688 182.7813110351563 C 792.9243774414063 182.7941284179688 792.93359375 182.8070068359375 792.9428100585938 182.81982421875 C 792.9747314453125 182.8643188476563 792.9976806640625 182.8964233398438 793.0296020507813 182.9409790039063 C 793.030029296875 182.9415283203125 793.0303955078125 182.9420776367188 793.0308227539063 182.942626953125 C 793.0547485351563 182.97607421875 793.0890502929688 183.0239868164063 793.1129760742188 183.0574340820313 C 793.1238403320313 183.0725708007813 793.1346435546875 183.0877075195313 793.1455078125 183.1029052734375 C 793.1614379882813 183.1251831054688 793.1810302734375 183.1525268554688 793.1969604492188 183.1748046875 C 793.2106323242188 183.1939086914063 793.2243041992188 183.2130126953125 793.2379760742188 183.232177734375 C 793.2459716796875 183.2432861328125 793.2543334960938 183.2550659179688 793.2623291015625 183.2661743164063 C 793.2805786132813 183.2918090820313 793.2988891601563 183.3173217773438 793.317138671875 183.3429565429688 L 791.6898193359375 184.505615234375 C 791.3058471679688 183.96826171875 790.915283203125 183.4241333007813 790.52880859375 182.8884887695313 L 792.1508178710938 181.7183837890625 Z M 817.0574340820313 220.3665161132813 C 817.180419921875 220.5813598632813 817.3106079101563 220.8092651367188 817.4332885742188 221.0244140625 C 817.6383666992188 221.3841552734375 817.8429565429688 221.7442626953125 818.0470581054688 222.1046142578125 L 816.3068237304688 223.0902709960938 C 815.9812622070313 222.5155029296875 815.6498413085938 221.9334106445313 815.3217163085938 221.3600463867188 L 817.0574951171875 220.3665161132813 Z M 837.7637329101563 261.4208374023438 C 837.8460083007813 261.6079711914063 837.92822265625 261.7952880859375 838.0103149414063 261.9825439453125 C 838.0103149414063 261.9825439453125 838.0167236328125 261.9971923828125 838.0167236328125 261.9971923828125 C 838.0274658203125 262.021728515625 838.0382080078125 262.0462646484375 838.0489501953125 262.07080078125 C 838.06005859375 262.09619140625 838.0764770507813 262.1337890625 838.0875854492188 262.1591796875 C 838.0927124023438 262.1707763671875 838.0978393554688 262.1824951171875 838.1029052734375 262.1941528320313 C 838.2583618164063 262.5494995117188 838.4027099609375 262.8806762695313 838.5573120117188 263.236572265625 C 838.5597534179688 263.2421264648438 838.5621948242188 263.247802734375 838.5645751953125 263.2533569335938 L 836.7301635742188 264.0501708984375 C 836.467041015625 263.4442749023438 836.1988525390625 262.8306274414063 835.9329223632813 262.2259521484375 L 837.7637329101563 261.4208374023438 Z M 854.0185546875 304.4288330078125 C 854.1077270507813 304.7088623046875 854.2073974609375 305.0228271484375 854.2960205078125 305.3031005859375 C 854.301513671875 305.320556640625 854.3070068359375 305.3379516601563 854.3125610351563 305.3554077148438 C 854.3167724609375 305.3687744140625 854.3274536132813 305.4025268554688 854.3316650390625 305.4158935546875 C 854.4284057617188 305.7222900390625 854.52490234375 306.0288696289063 854.6210327148438 306.3356323242188 L 852.7125854492188 306.933837890625 C 852.5150756835938 306.3035888671875 852.3132934570313 305.6650390625 852.1129150390625 305.0358276367188 L 854.0186157226563 304.4288330078125 Z M 865.632568359375 348.9168090820313 C 865.7666015625 349.5700073242188 865.8994140625 350.22509765625 866.0305786132813 350.8792724609375 L 864.069580078125 351.2722778320313 C 863.9395751953125 350.6238403320313 863.8062744140625 349.9666137695313 863.6734008789063 349.3189086914063 L 865.632568359375 348.9168090820313 Z M 872.4879760742188 394.385498046875 C 872.5411987304688 394.9316711425781 872.5911865234375 395.4550476074219 872.642333984375 396.0018005371094 C 872.6539306640625 396.1255493164063 872.6654663085938 396.2493591308594 872.6769409179688 396.3731689453125 L 870.6854858398438 396.5578308105469 C 870.6246337890625 395.9012756347656 870.561279296875 395.2355041503906 870.4973754882813 394.5792846679688 L 872.488037109375 394.385498046875 Z M 872.5550537109375 440.3130493164063 L 874.5550537109375 440.3267211914063 C 874.5526733398438 440.6651916503906 874.5499877929688 441.0043640136719 874.5469360351563 441.3426513671875 C 874.5468139648438 441.3561096191406 874.5466918945313 441.3695068359375 874.5465698242188 441.3829650878906 C 874.5462646484375 441.4123840332031 874.5460815429688 441.4349060058594 874.5457763671875 441.4642944335938 C 874.5430908203125 441.7523193359375 874.5401000976563 442.040283203125 874.5368041992188 442.3281555175781 L 872.5370483398438 442.3054809570313 C 872.5444946289063 441.6445922851563 872.5504760742188 440.9742736816406 872.5550537109375 440.3130493164063 Z M 869.869140625 486.0063781738281 L 871.8568115234375 486.2277221679688 C 871.855224609375 486.2420349121094 871.85546875 486.2400207519531 871.8538818359375 486.2543334960938 C 871.8513793945313 486.2766418457031 871.848876953125 486.2989501953125 871.8463745117188 486.3212280273438 C 871.776123046875 486.9510498046875 871.7039794921875 487.5849304199219 871.6310424804688 488.2139282226563 L 869.6444091796875 487.9834899902344 C 869.7203979492188 487.3277282714844 869.7960205078125 486.66259765625 869.869140625 486.0063781738281 Z M 862.4166259765625 531.1608276367188 L 864.3699340820313 531.5902709960938 C 864.2756958007813 532.0189208984375 864.1798095703125 532.4520874023438 864.0842895507813 532.8802490234375 C 864.0823364257813 532.88916015625 864.080322265625 532.8981323242188 864.0783081054688 532.9071044921875 C 864.0721435546875 532.9346923828125 864.0702514648438 532.9432983398438 864.0640869140625 532.970947265625 C 864.0216064453125 533.1609497070313 863.9790649414063 533.3510131835938 863.9364013671875 533.5408935546875 L 861.9850463867188 533.1026000976563 C 862.1296997070313 532.458740234375 862.2749633789063 531.805419921875 862.4166259765625 531.1608276367188 Z M 850.2373657226563 575.2783813476563 L 852.1343994140625 575.9119262695313 C 851.957275390625 576.4420166015625 851.7770385742188 576.9781494140625 851.5980224609375 577.50732421875 C 851.5914916992188 577.5265502929688 851.5850219726563 577.5457763671875 851.5784912109375 577.56494140625 C 851.5784912109375 577.56494140625 851.5733642578125 577.580078125 851.5733642578125 577.580078125 C 851.547607421875 577.6561279296875 851.5218505859375 577.7322387695313 851.4960327148438 577.8082275390625 L 849.60205078125 577.1658935546875 C 849.8142700195313 576.5401611328125 850.028076171875 575.905029296875 850.2373657226563 575.2783813476563 Z M 833.4592895507813 617.8594970703125 L 835.2786254882813 618.6901245117188 C 835.2039794921875 618.853759765625 835.1282958984375 619.0192260742188 835.0534057617188 619.1827392578125 C 835.0431518554688 619.205078125 835.032958984375 619.2273559570313 835.022705078125 619.2496337890625 C 835.0169677734375 619.26220703125 835.0206909179688 619.2540283203125 835.0149536132813 619.2666015625 C 834.8485107421875 619.6297607421875 834.6815795898438 619.99267578125 834.5142211914063 620.355224609375 C 834.5026245117188 620.38037109375 834.50537109375 620.3743896484375 834.4937744140625 620.3995361328125 C 834.4882202148438 620.4115600585938 834.4826049804688 620.4236450195313 834.47705078125 620.4357299804688 C 834.4654541015625 620.4608154296875 834.4558715820313 620.4815673828125 834.4442749023438 620.5067138671875 L 832.6287231445313 619.667724609375 C 832.9057006835938 619.068359375 833.1851806640625 618.4600830078125 833.4592895507813 617.8594970703125 Z M 812.28125 658.4324951171875 L 814.0030517578125 659.4500732421875 C 813.8491821289063 659.7103271484375 813.7105712890625 659.9443359375 813.5562133789063 660.204345703125 C 813.3649291992188 660.5264892578125 813.1732177734375 660.8483276367188 812.9811401367188 661.169921875 L 811.2640380859375 660.1444702148438 C 811.6028442382813 659.5772705078125 811.945068359375 659.0012817382813 812.28125 658.4324951171875 Z M 786.9561767578125 696.5574951171875 L 788.5617065429688 697.7499389648438 C 788.390380859375 697.980712890625 788.21875 698.2112426757813 788.0469970703125 698.441650390625 C 788.0469970703125 698.441650390625 788.0258178710938 698.4700317382813 788.0258178710938 698.4700317382813 C 788.0081787109375 698.49365234375 787.9906005859375 698.5172729492188 787.9729614257813 698.5408935546875 C 787.7764892578125 698.8041381835938 787.5628662109375 699.0897827148438 787.3657836914063 699.3526000976563 L 785.765625 698.15283203125 C 786.1618041992188 697.6243896484375 786.5623779296875 697.0877075195313 786.9561767578125 696.5574951171875 Z M 757.780517578125 731.823486328125 L 759.252685546875 733.17724609375 C 758.799560546875 733.6700439453125 758.3509521484375 734.15576171875 757.8955688476563 734.646484375 L 756.4295043945313 733.2860107421875 C 756.8788452148438 732.8018188476563 757.3333740234375 732.3096923828125 757.780517578125 731.823486328125 Z M 725.082275390625 763.8513793945313 L 726.4051513671875 765.3512573242188 C 725.9051513671875 765.792236328125 725.4041748046875 766.232177734375 724.9020385742188 766.6709594726563 L 723.5860595703125 765.1649169921875 C 724.0833740234375 764.7302856445313 724.5867919921875 764.2882690429688 725.082275390625 763.8513793945313 Z M 689.21875 792.2892456054688 L 690.3776245117188 793.9193725585938 C 689.9421997070313 794.2288818359375 689.517333984375 794.52978515625 689.080810546875 794.8377685546875 C 689.07958984375 794.838623046875 689.0783081054688 794.8395385742188 689.0770874023438 794.8403930664063 C 689.0435180664063 794.8640747070313 689.022216796875 794.8790893554688 688.9885864257813 794.9027709960938 C 688.9074096679688 794.9600219726563 688.8262939453125 795.0172119140625 688.7450561523438 795.0744018554688 L 687.59375 793.4390258789063 C 688.1337280273438 793.058837890625 688.6803588867188 792.6720581054688 689.21875 792.2892456054688 Z M 650.5753784179688 816.81494140625 L 651.5568237304688 818.5576171875 C 651.5447998046875 818.5643310546875 651.5404052734375 818.5668334960938 651.5284423828125 818.5736083984375 C 651.5101928710938 818.5838623046875 651.491943359375 818.5941162109375 651.4737548828125 818.6043701171875 C 651.44970703125 818.617919921875 651.4004516601563 818.6456298828125 651.37646484375 818.6591186523438 C 651.3677978515625 818.6640014648438 651.3592529296875 818.6687622070313 651.3506469726563 818.6736450195313 C 651.3026733398438 818.7006225585938 651.2601928710938 818.7244873046875 651.2122192382813 818.75146484375 C 651.2118530273438 818.751708984375 651.2114868164063 818.7518920898438 651.2111206054688 818.7521362304688 C 650.7432861328125 819.0150146484375 650.2801513671875 819.274169921875 649.811279296875 819.5354614257813 L 648.8378295898438 817.7883911132813 C 649.4150390625 817.4667358398438 649.9996337890625 817.1392822265625 650.5753784179688 816.81494140625 Z M 609.5679321289063 837.1402587890625 L 610.3601684570313 838.9766235351563 C 610.2088623046875 839.0419311523438 610.057373046875 839.107177734375 609.906005859375 839.1723022460938 C 609.8932495117188 839.177734375 609.8658447265625 839.1895141601563 609.8531494140625 839.1950073242188 C 609.8255615234375 839.2068481445313 609.798095703125 839.2186889648438 609.7705078125 839.2305297851563 C 609.7196044921875 839.2523803710938 609.695068359375 839.262939453125 609.64404296875 839.2848510742188 C 609.6370849609375 839.287841796875 609.6300048828125 839.2908325195313 609.623046875 839.2938232421875 C 609.5721435546875 839.3157348632813 609.5343627929688 839.3319091796875 609.4833984375 839.353759765625 C 609.4830932617188 839.3538818359375 609.4827880859375 839.35400390625 609.4825439453125 839.3541259765625 C 609.380615234375 839.3978271484375 609.2808837890625 839.4405517578125 609.178955078125 839.4841918945313 C 609.177001953125 839.4850463867188 609.175048828125 839.48583984375 609.1730346679688 839.4866943359375 C 609.1220703125 839.508544921875 609.08935546875 839.5225219726563 609.038330078125 839.5443115234375 C 609.0302734375 839.5477905273438 609.0220947265625 839.55126953125 609.0140380859375 839.5547485351563 C 608.9630126953125 839.5765380859375 608.9375 839.5874633789063 608.886474609375 839.6092529296875 C 608.87890625 839.6124267578125 608.871337890625 839.61572265625 608.8638305664063 839.618896484375 C 608.8255615234375 839.63525390625 608.7821655273438 839.6537475585938 608.743896484375 839.6701049804688 C 608.7161254882813 839.6819458007813 608.6883544921875 839.6937866210938 608.6605834960938 839.7056274414063 C 608.6478271484375 839.7110595703125 608.6331787109375 839.71728515625 608.6204833984375 839.7227172851563 C 608.587890625 839.7366333007813 608.5552978515625 839.75048828125 608.522705078125 839.764404296875 L 607.7388305664063 837.9243774414063 C 608.3463134765625 837.6655883789063 608.9616088867188 837.40185546875 609.5679321289063 837.1402587890625 Z M 566.645263671875 853.0205078125 L 567.2388916015625 854.9303588867188 C 567.1185302734375 854.9677734375 566.9969482421875 855.0054931640625 566.8765869140625 855.0427856445313 C 566.3602294921875 855.2027587890625 565.843505859375 855.36181640625 565.326416015625 855.5199584960938 L 564.7415771484375 853.6073608398438 C 565.3735961914063 853.4141845703125 566.01416015625 853.2167358398438 566.645263671875 853.0205078125 Z M 522.27880859375 864.2716064453125 L 522.6671142578125 866.2335205078125 C 522.3914794921875 866.2880859375 522.1156616210938 866.3424072265625 521.8397216796875 866.3964233398438 C 521.8258056640625 866.399169921875 521.794677734375 866.4052734375 521.7807006835938 866.4080200195313 C 521.7570190429688 866.4126586914063 521.7333984375 866.4172973632813 521.709716796875 866.4219360351563 C 521.3751220703125 866.4873657226563 521.0419921875 866.5521240234375 520.7071533203125 866.6168212890625 L 520.3278198242188 864.653076171875 C 520.9754638671875 864.528076171875 521.6318359375 864.3995971679688 522.27880859375 864.2716064453125 Z M 476.9798278808594 870.7796020507813 L 477.1598205566406 872.771484375 C 476.9190979003906 872.7932739257813 476.6782836914063 872.8148193359375 476.4374389648438 872.8362426757813 C 476.0196228027344 872.873291015625 475.58642578125 872.9111328125 475.1682739257813 872.947021484375 L 474.9972839355469 870.9544067382813 C 475.6552734375 870.8978271484375 476.322265625 870.8390502929688 476.9798278808594 870.7796020507813 Z M 429.2376098632813 872.4924926757813 C 429.8974914550781 872.5045166015625 430.5667114257813 872.51513671875 431.2268371582031 872.524169921875 L 431.1994934082031 874.52392578125 C 431.1701049804688 874.5234985351563 431.1324768066406 874.5230102539063 431.1030883789063 874.5225830078125 C 431.1024475097656 874.5225830078125 431.101806640625 874.5225830078125 431.1011657714844 874.5225830078125 C 431.0423889160156 874.5217895507813 430.9990234375 874.5211791992188 430.9402465820313 874.5203247070313 C 430.9189453125 874.52001953125 430.8976745605469 874.5197143554688 430.8763427734375 874.5194091796875 C 430.8469848632813 874.5189819335938 430.8275146484375 874.5186767578125 430.7981262207031 874.5182495117188 C 430.7683715820313 874.517822265625 430.7385864257813 874.5173950195313 430.7088317871094 874.5169677734375 C 430.6941223144531 874.5167236328125 430.6879272460938 874.5166625976563 430.6732177734375 874.5164184570313 C 430.1824340820313 874.5091552734375 429.6917724609375 874.5010986328125 429.2013854980469 874.4921875 L 429.2376098632813 872.4924926757813 Z M 383.5839233398438 869.2860717773438 C 384.2383728027344 869.3665771484375 384.9021606445313 869.4467163085938 385.5570373535156 869.5242919921875 L 385.3218383789063 871.5103759765625 C 384.6647033691406 871.4325561523438 383.9960632324219 871.351806640625 383.33984375 871.2711181640625 L 383.5839233398438 869.2860717773438 Z M 338.5115966796875 861.311279296875 C 339.1555786132813 861.4606323242188 339.8090209960938 861.6107177734375 340.4537353515625 861.7571411132813 L 340.0107421875 863.7073974609375 C 339.8308715820313 863.6665649414063 339.6510620117188 863.6256103515625 339.4713134765625 863.5845336914063 C 339.429931640625 863.5750732421875 339.4074096679688 863.5699462890625 339.3660888671875 863.5604858398438 C 339.3582763671875 863.5586547851563 339.3504638671875 863.556884765625 339.3426513671875 863.5551147460938 C 339.0118408203125 863.4794311523438 338.6987915039063 863.4074096679688 338.3682861328125 863.3309936523438 C 338.3646240234375 863.3301391601563 338.3610229492188 863.3292846679688 338.3572998046875 863.3284301757813 C 338.2609252929688 863.30615234375 338.156005859375 863.2818603515625 338.0596313476563 863.2594604492188 L 338.5115966796875 861.311279296875 Z M 294.5398559570313 848.6210327148438 C 295.16357421875 848.8374633789063 295.7966918945313 849.0554809570313 296.4215087890625 849.26904296875 L 295.7745971679688 851.1614990234375 C 295.5841674804688 851.096435546875 295.3938598632813 851.03125 295.2035522460938 850.9658813476563 C 295.1903686523438 850.9613647460938 295.1835327148438 850.9590454101563 295.1703491210938 850.9544677734375 C 295.1456909179688 850.946044921875 295.12109375 850.9375610351563 295.0964965820313 850.9291381835938 C 295.056884765625 850.91552734375 295.0284423828125 850.9057006835938 294.9888305664063 850.89208984375 C 294.9816284179688 850.8896484375 294.9744262695313 850.8871459960938 294.9672241210938 850.8846435546875 C 294.8616333007813 850.8483276367188 294.7630004882813 850.8143920898438 294.657470703125 850.7779541015625 C 294.6559448242188 850.7774658203125 294.6544189453125 850.7769165039063 294.6528930664063 850.7764282226563 C 294.60009765625 850.7581787109375 294.5570068359375 850.7433471679688 294.5042114257813 850.72509765625 C 294.5007934570313 850.723876953125 294.497314453125 850.7227172851563 294.4938354492188 850.7214965820313 C 294.4411010742188 850.7033081054688 294.4013671875 850.6895751953125 294.3486328125 850.6713256835938 C 294.327880859375 850.6641845703125 294.3071899414063 850.656982421875 294.2864990234375 850.6498413085938 C 294.2600708007813 850.6407470703125 294.2525024414063 850.6380615234375 294.2261352539063 850.6289672851563 C 294.1121826171875 850.5895385742188 293.9981689453125 850.550048828125 293.88427734375 850.510498046875 L 294.5398559570313 848.6210327148438 Z M 252.1567993164063 831.3505859375 C 252.7548217773438 831.632080078125 253.3619384765625 831.9159545898438 253.961181640625 832.194580078125 L 253.1177978515625 834.0081787109375 C 253.0175170898438 833.9614868164063 252.901611328125 833.9075317382813 252.8013305664063 833.86083984375 C 252.7997436523438 833.8600463867188 252.798095703125 833.8592529296875 252.7964477539063 833.8585205078125 C 252.7713623046875 833.8468627929688 252.738525390625 833.83154296875 252.7134399414063 833.81982421875 C 252.24365234375 833.6007690429688 251.7742309570313 833.380859375 251.3052978515625 833.16015625 L 252.1567993164063 831.3505859375 Z M 211.830078125 809.70458984375 C 212.3948364257813 810.0471801757813 212.96826171875 810.3932495117188 213.5344848632813 810.7332763671875 L 212.5049438476563 812.4479370117188 C 211.9334106445313 812.104736328125 211.3626098632813 811.76025390625 210.792724609375 811.4144897460938 L 211.830078125 809.70458984375 Z M 173.9993896484375 783.9431762695313 C 174.525146484375 784.3431396484375 175.0592651367188 784.7474975585938 175.5869140625 785.14501953125 L 174.3833618164063 786.7423706054688 C 174.3833618164063 786.7423706054688 174.3626708984375 786.7267456054688 174.3626708984375 786.7267456054688 C 173.9800415039063 786.4383544921875 173.597900390625 786.1494750976563 173.2162475585938 785.85986328125 C 173.2053833007813 785.8516235351563 173.18896484375 785.8391723632813 173.1780395507813 785.8309326171875 C 173.1597290039063 785.8170166015625 173.1414184570313 785.8031005859375 173.1231079101563 785.7891845703125 C 173.1012573242188 785.7726440429688 173.0746459960938 785.75244140625 173.0528564453125 785.7359008789063 C 173.0385131835938 785.7249755859375 173.024169921875 785.714111328125 173.0098266601563 785.7031860351563 C 172.9771118164063 785.6783447265625 172.9307861328125 785.6431274414063 172.8981323242188 785.6182861328125 C 172.8971557617188 785.6175537109375 172.8961791992188 785.6168212890625 172.895263671875 785.6160888671875 C 172.862548828125 785.59130859375 172.8211669921875 785.559814453125 172.7885131835938 785.534912109375 L 173.9993896484375 783.9431762695313 Z M 139.0697021484375 754.3649291992188 C 139.5508422851563 754.817626953125 140.0397338867188 755.2755126953125 140.5228271484375 755.7259521484375 L 139.1589965820313 757.1887817382813 C 139.0090942382813 757.0490112304688 138.8576049804688 756.9075927734375 138.7078857421875 756.7676391601563 C 138.6880493164063 756.7490234375 138.6680908203125 756.7304077148438 138.6482543945313 756.7117919921875 C 138.6282958984375 756.6931762695313 138.6154174804688 756.68115234375 138.595458984375 756.6624755859375 C 138.29638671875 756.382568359375 137.9976196289063 756.102294921875 137.6992797851563 755.8215942382813 L 139.0697021484375 754.3649291992188 Z M 107.4183959960938 721.3021240234375 C 107.849609375 721.802490234375 108.2879638671875 722.308837890625 108.7213745117188 722.80712890625 L 107.21240234375 724.1197509765625 C 106.995361328125 723.8702392578125 106.778564453125 723.6204223632813 106.5620727539063 723.370361328125 C 106.5620727539063 723.370361328125 106.5537719726563 723.3607788085938 106.5537719726563 723.3607788085938 C 106.5016479492188 723.3005981445313 106.4495849609375 723.2403564453125 106.3974609375 723.18017578125 C 106.3974609375 723.18017578125 106.384521484375 723.1651611328125 106.384521484375 723.1651611328125 C 106.3373413085938 723.110595703125 106.2901611328125 723.0560302734375 106.2429809570313 723.00146484375 C 106.2429809570313 723.00146484375 106.2233276367188 722.9786376953125 106.2233276367188 722.9786376953125 C 106.174560546875 722.9221801757813 106.125732421875 722.8656616210938 106.0769653320313 722.8091430664063 C 106.0680541992188 722.798828125 106.0549926757813 722.78369140625 106.0460815429688 722.7733154296875 C 106.0074462890625 722.728515625 105.9688110351563 722.6837158203125 105.93017578125 722.638916015625 C 105.9212646484375 722.6285400390625 105.9122924804688 722.6181640625 105.9033813476563 722.6077880859375 L 107.4183959960938 721.3021240234375 Z M 79.393798828125 685.1149291992188 C 79.7703857421875 685.65771484375 80.15350341796875 686.207275390625 80.532470703125 686.748291015625 L 78.89447021484375 687.8958129882813 C 78.7373046875 687.67138671875 78.5794677734375 687.4456787109375 78.42266845703125 687.220947265625 C 78.1982421875 686.8992919921875 77.9742431640625 686.5773315429688 77.7506103515625 686.2550659179688 L 79.393798828125 685.1149291992188 Z M 55.314697265625 646.1917114257813 C 55.6319580078125 646.7706298828125 55.95513916015625 647.35693359375 56.2750244140625 647.9345092773438 L 54.52557373046875 648.9036865234375 C 54.2587890625 648.4220581054688 53.99420166015625 647.9423828125 53.7291259765625 647.4596557617188 C 53.7279052734375 647.4573974609375 53.72662353515625 647.4552001953125 53.72540283203125 647.4529418945313 C 53.69891357421875 647.4046630859375 53.681884765625 647.3736572265625 53.6553955078125 647.3253173828125 C 53.6510009765625 647.3173828125 53.6466064453125 647.309326171875 53.6422119140625 647.3013916015625 C 53.61572265625 647.2531127929688 53.59954833984375 647.2235717773438 53.57305908203125 647.17529296875 C 53.5714111328125 647.1722412109375 53.5697021484375 647.1691284179688 53.5679931640625 647.1660766601563 C 53.5679931640625 647.1660766601563 53.56085205078125 647.1529541015625 53.56085205078125 647.1529541015625 L 55.314697265625 646.1917114257813 Z M 35.46551513671875 604.95263671875 C 35.72015380859375 605.5621337890625 35.97979736328125 606.1796875 36.23724365234375 606.7881469726563 L 34.3953857421875 607.567626953125 C 34.34136962890625 607.4398803710938 34.2901611328125 607.3187255859375 34.2362060546875 607.19091796875 C 34.23333740234375 607.1841430664063 34.23046875 607.17724609375 34.22760009765625 607.1705322265625 C 34.21142578125 607.1322021484375 34.20513916015625 607.1173095703125 34.18896484375 607.0789794921875 C 33.99859619140625 606.6275024414063 33.8089599609375 606.1757202148438 33.62005615234375 605.7235107421875 L 35.46551513671875 604.95263671875 Z M 20.083740234375 561.8463745117188 C 20.27239990234375 562.4791259765625 20.46514892578125 563.120361328125 20.65673828125 563.7523803710938 L 18.74273681640625 564.3326416015625 C 18.68988037109375 564.158203125 18.63922119140625 563.9906005859375 18.5865478515625 563.816162109375 C 18.47161865234375 563.43505859375 18.3570556640625 563.0537109375 18.2430419921875 562.6721801757813 C 18.2430419921875 562.6721801757813 18.23785400390625 562.65478515625 18.23785400390625 562.65478515625 C 18.2373046875 562.653076171875 18.23681640625 562.6513671875 18.23626708984375 562.649658203125 C 18.21221923828125 562.5690307617188 18.19110107421875 562.498291015625 18.16705322265625 562.417724609375 L 20.083740234375 561.8463745117188 Z M 9.349365234375 517.358642578125 C 9.47003173828125 518.0076904296875 9.59405517578125 518.6657104492188 9.71771240234375 519.3142700195313 L 7.7530517578125 519.68896484375 C 7.6279296875 519.0325927734375 7.50531005859375 518.3815307617188 7.383056640625 517.72412109375 L 9.349365234375 517.358642578125 Z M 3.36260986328125 471.9812622070313 C 3.41461181640625 472.6405029296875 3.46881103515625 473.308837890625 3.5238037109375 473.9675903320313 L 1.53082275390625 474.1339416503906 C 1.4832763671875 473.5651550292969 1.43701171875 472.9961853027344 1.39166259765625 472.4268493652344 C 1.389404296875 472.39794921875 1.3868408203125 472.3655700683594 1.384521484375 472.3367004394531 C 1.38372802734375 472.3265075683594 1.38287353515625 472.3162841796875 1.382080078125 472.3060913085938 C 1.37750244140625 472.248291015625 1.3734130859375 472.1962890625 1.36883544921875 472.1384887695313 L 3.36260986328125 471.9812622070313 Z M 0.13836669921875 426.1697082519531 L 2.1378173828125 426.2196044921875 C 2.12139892578125 426.8786010742188 2.10614013671875 427.5470581054688 2.09271240234375 428.2063903808594 L 0.09307861328125 428.1654968261719 C 0.09942626953125 427.8574523925781 0.106201171875 427.5417785644531 0.11309814453125 427.2339172363281 C 0.11322021484375 427.2291870117188 0.11334228515625 427.2245178222656 0.11346435546875 427.2198181152344 C 0.11474609375 427.1611633300781 0.11572265625 427.1180725097656 0.11712646484375 427.0594482421875 C 0.1171875 427.0559997558594 0.11724853515625 427.0525207519531 0.1173095703125 427.049072265625 C 0.11865234375 426.9904479980469 0.11956787109375 426.95166015625 0.1209716796875 426.8930358886719 C 0.12127685546875 426.8780517578125 0.12164306640625 426.8630065917969 0.12200927734375 426.8480224609375 C 0.1226806640625 426.8186950683594 0.124267578125 426.7518920898438 0.12493896484375 426.7225646972656 C 0.12518310546875 426.7117004394531 0.12548828125 426.7007446289063 0.125732421875 426.6898498535156 C 0.1298828125 426.5139770507813 0.134033203125 426.3455505371094 0.138427734375 426.1697082519531 Z M 3.6761474609375 380.3215942382813 L 5.65948486328125 380.57958984375 C 5.57415771484375 381.2355041503906 5.4891357421875 381.9008178710938 5.40679931640625 382.5571594238281 L 3.42236328125 382.3082580566406 C 3.4482421875 382.1019592285156 3.4742431640625 381.8956909179688 3.50042724609375 381.689453125 C 3.50042724609375 381.689453125 3.50146484375 381.6815490722656 3.50146484375 381.6815490722656 C 3.50634765625 381.642822265625 3.51123046875 381.6041564941406 3.51617431640625 381.5654296875 C 3.5216064453125 381.522705078125 3.529296875 381.4625549316406 3.53472900390625 381.4198303222656 C 3.53497314453125 381.4179992675781 3.53515625 381.416259765625 3.535400390625 381.4144287109375 C 3.5826416015625 381.0440368652344 3.62799072265625 380.6917419433594 3.67620849609375 380.3215942382813 Z M 12.0028076171875 335.1024780273438 L 13.94781494140625 335.5681762695313 C 13.7940673828125 336.2105102539063 13.63958740234375 336.8621826171875 13.48883056640625 337.5051879882813 L 11.54168701171875 337.048583984375 C 11.58428955078125 336.866943359375 11.62701416015625 336.6853637695313 11.6697998046875 336.5037841796875 C 11.7703857421875 336.0775756835938 11.86761474609375 335.6678466796875 11.96942138671875 335.2421264648438 C 11.98052978515625 335.195556640625 11.99169921875 335.1489868164063 12.0028076171875 335.1024780273438 Z M 25.0599365234375 291.0199584960938 L 26.9447021484375 291.688720703125 C 26.72406005859375 292.3107299804688 26.501708984375 292.9419555664063 26.2838134765625 293.56494140625 L 24.39593505859375 292.9048461914063 C 24.5755615234375 292.3912353515625 24.74786376953125 291.9013061523438 24.92926025390625 291.3886108398438 C 24.9727783203125 291.2656860351563 25.016357421875 291.142822265625 25.0599365234375 291.0199584960938 Z M 42.7086181640625 248.5602416992188 L 44.51226806640625 249.4244995117188 C 44.226806640625 250.0203857421875 43.938720703125 250.6251831054688 43.65594482421875 251.2222900390625 L 41.848388671875 250.3662719726563 C 41.8602294921875 250.34130859375 41.86968994140625 250.3212890625 41.88153076171875 250.2963256835938 C 41.9755859375 250.0977783203125 42.06976318359375 249.8994140625 42.16412353515625 249.7009887695313 C 42.16412353515625 249.7009887695313 42.173583984375 249.6810913085938 42.173583984375 249.6810913085938 C 42.18365478515625 249.6598510742188 42.19378662109375 249.6386108398438 42.20391845703125 249.6173706054688 C 42.37017822265625 249.2679443359375 42.54144287109375 248.9091796875 42.7086181640625 248.560302734375 Z M 64.73492431640625 208.2018432617188 L 66.4376220703125 209.2510375976563 C 66.09124755859375 209.8131713867188 65.74127197265625 210.384033203125 65.39752197265625 210.9476928710938 L 63.6900634765625 209.90625 C 63.73907470703125 209.8258666992188 63.78814697265625 209.7454223632813 63.8372802734375 209.6650390625 C 63.8587646484375 209.6298828125 63.8826904296875 209.5906372070313 63.90423583984375 209.5554809570313 C 63.90655517578125 209.5516357421875 63.908935546875 209.5477905273438 63.9112548828125 209.5439453125 C 64.1834716796875 209.0986328125 64.46124267578125 208.6461181640625 64.7349853515625 208.2018432617188 Z M 90.8780517578125 170.3768310546875 L 92.46148681640625 171.5986328125 C 92.05792236328125 172.12158203125 91.64996337890625 172.6529541015625 91.24871826171875 173.177734375 L 89.65972900390625 171.963134765625 C 89.8841552734375 171.669677734375 90.1173095703125 171.3654174804688 90.3424072265625 171.0724487304688 C 90.343994140625 171.0703735351563 90.3455810546875 171.0682983398438 90.34716796875 171.0662231445313 C 90.52227783203125 170.8384399414063 90.70257568359375 170.6043090820313 90.8780517578125 170.3768310546875 Z M 120.8329467773438 135.4940185546875 L 122.280029296875 136.87451171875 C 121.8241577148438 137.3524780273438 121.3629150390625 137.838134765625 120.9091796875 138.3181762695313 L 119.4556884765625 136.9442749023438 C 119.5496215820313 136.8450317382813 119.6254272460938 136.7648315429688 119.7193603515625 136.6656494140625 C 119.7266235351563 136.6580200195313 119.7338256835938 136.650390625 119.7410888671875 136.6427612304688 C 119.7786254882813 136.6030883789063 119.7936401367188 136.5872802734375 119.8312377929688 136.547607421875 C 119.87548828125 136.5008544921875 119.919677734375 136.4542236328125 119.9639892578125 136.4075317382813 C 119.973388671875 136.3976440429688 119.9783325195313 136.3923950195313 119.9877319335938 136.3825073242188 C 120.0385131835938 136.3289794921875 120.0892944335938 136.2755126953125 120.1400756835938 136.2219848632813 C 120.1400756835938 136.2219848632813 120.1454467773438 136.21630859375 120.1454467773438 136.21630859375 C 120.3743896484375 135.9752807617188 120.603515625 135.7345581054688 120.8329467773438 135.4940185546875 Z M 154.2654418945313 103.9283447265625 L 155.5606079101563 105.4522705078125 C 155.0572509765625 105.8800659179688 154.5478515625 106.31494140625 154.0465087890625 106.7450561523438 L 152.744384765625 105.2269287109375 C 152.9329833984375 105.065185546875 153.1217041015625 104.903564453125 153.3106079101563 104.7421264648438 C 153.3106079101563 104.7421264648438 153.3165893554688 104.7369995117188 153.3165893554688 104.7369995117188 C 153.3739624023438 104.68798828125 153.4313354492188 104.638916015625 153.4887084960938 104.5899047851563 C 153.509521484375 104.5721435546875 153.5283203125 104.5560913085938 153.5491333007813 104.5383911132813 C 153.5768432617188 104.5147094726563 153.6046752929688 104.490966796875 153.6323852539063 104.46728515625 C 153.8403930664063 104.2898559570313 154.05712890625 104.1053466796875 154.2654418945313 103.9283447265625 Z M 190.8129272460938 76.02716064453125 L 191.9415893554688 77.67828369140625 C 191.3961791992188 78.051025390625 190.8438110351563 78.43048095703125 190.300048828125 78.80584716796875 L 189.1639404296875 77.159912109375 C 189.2921752929688 77.0714111328125 189.4204711914063 76.98291015625 189.5487670898438 76.89453125 C 189.8648071289063 76.67681884765625 190.1515502929688 76.47991943359375 190.4681396484375 76.2630615234375 C 190.4769897460938 76.25701904296875 190.48583984375 76.25091552734375 190.49462890625 76.244873046875 C 190.5059814453125 76.23712158203125 190.5081176757813 76.23565673828125 190.5194702148438 76.2279052734375 C 190.6172485351563 76.16094970703125 190.715087890625 76.09405517578125 190.8129272460938 76.02716064453125 Z M 230.080810546875 52.1103515625 L 231.0299072265625 53.870849609375 C 230.4486083984375 54.18414306640625 229.8597412109375 54.50335693359375 229.2798461914063 54.81939697265625 L 228.3226928710938 53.06329345703125 C 228.57666015625 52.9249267578125 228.85205078125 52.77520751953125 229.1062622070313 52.6373291015625 C 229.1362915039063 52.62103271484375 229.1663208007813 52.60479736328125 229.1962890625 52.5885009765625 C 229.1962890625 52.5885009765625 229.2056274414063 52.58343505859375 229.2056274414063 52.58343505859375 C 229.4971923828125 52.4254150390625 229.7888793945313 52.26776123046875 230.080810546875 52.1103515625 Z M 271.6508178710938 32.45806884765625 L 272.408935546875 34.308837890625 C 271.7971801757813 34.55938720703125 271.177490234375 34.8148193359375 270.5669555664063 35.06829833984375 L 269.8003540039063 33.220947265625 C 270.4155883789063 32.96563720703125 271.0342407226563 32.71063232421875 271.6508178710938 32.45806884765625 Z M 315.059814453125 17.3099365234375 L 315.6177978515625 19.2305908203125 C 314.9838256835938 19.41473388671875 314.3414916992188 19.60296630859375 313.7083740234375 19.7900390625 L 313.1414794921875 17.8720703125 C 313.4374389648438 17.78460693359375 313.7015380859375 17.70684814453125 313.9977416992188 17.6199951171875 C 314.0140991210938 17.61517333984375 314.0304565429688 17.61041259765625 314.046875 17.6055908203125 C 314.0737915039063 17.59771728515625 314.1041870117188 17.58880615234375 314.131103515625 17.5809326171875 C 314.1570434570313 17.57330322265625 314.1829833984375 17.56573486328125 314.2088623046875 17.55810546875 C 314.2223510742188 17.55419921875 314.2369384765625 17.5499267578125 314.2503662109375 17.5460205078125 C 314.3140258789063 17.52734375 314.3777465820313 17.50872802734375 314.44140625 17.4901123046875 C 314.44140625 17.4901123046875 314.4634399414063 17.48370361328125 314.4634399414063 17.48370361328125 C 314.4899291992188 17.4759521484375 314.5164184570313 17.46826171875 314.5429077148438 17.46051025390625 C 314.5698852539063 17.45263671875 314.5970458984375 17.4447021484375 314.6239624023438 17.43682861328125 C 314.640380859375 17.43206787109375 314.6567993164063 17.42724609375 314.6732177734375 17.4224853515625 C 314.8079223632813 17.3831787109375 314.925048828125 17.34912109375 315.059814453125 17.30999755859375 Z M 359.831298828125 6.83795166015625 L 360.1831665039063 8.80670166015625 C 359.5324096679688 8.92303466796875 358.872802734375 9.04248046875 358.2228393554688 9.1617431640625 L 357.86181640625 7.194580078125 C 357.9396362304688 7.1802978515625 358.0174560546875 7.16607666015625 358.0952758789063 7.15179443359375 C 358.1092529296875 7.14923095703125 358.1482543945313 7.14215087890625 358.1622314453125 7.13958740234375 C 358.175048828125 7.13720703125 358.1878662109375 7.1348876953125 358.2006225585938 7.132568359375 C 358.6346435546875 7.05328369140625 359.0567626953125 6.976806640625 359.4912719726563 6.8988037109375 C 359.6046142578125 6.87847900390625 359.7178955078125 6.858154296875 359.831298828125 6.83795166015625 Z M 405.45849609375 1.1402587890625 L 405.6019287109375 3.1351318359375 C 404.9428405761719 3.1824951171875 404.2745056152344 3.232177734375 403.61572265625 3.282470703125 L 403.4632568359375 1.28839111328125 C 403.6690368652344 1.27264404296875 403.8748474121094 1.25701904296875 404.0806884765625 1.2415771484375 C 404.0806884765625 1.2415771484375 404.0919799804688 1.24072265625 404.0919799804688 1.24072265625 C 404.12744140625 1.238037109375 404.1629638671875 1.23541259765625 404.1984252929688 1.23272705078125 C 404.2273559570313 1.2305908203125 404.2541198730469 1.22857666015625 404.2830505371094 1.2264404296875 C 404.3047180175781 1.22479248046875 404.3263244628906 1.22320556640625 404.3480224609375 1.2215576171875 C 404.4058837890625 1.21728515625 404.4376220703125 1.21490478515625 404.4954833984375 1.21063232421875 C 404.5033874511719 1.21002197265625 404.5112915039063 1.20941162109375 404.5192260742188 1.2088623046875 C 404.8374938964844 1.18524169921875 405.1400451660156 1.1632080078125 405.45849609375 1.14031982421875 Z" stroke="none" fill="#ff6c2b"/></g></g><g transform="translate(572.688 -63.026)"><g transform="matrix(1, 0, 0, 1, -200.47, -200.47)" filter="url(#c)"><circle cx="383" cy="383" r="383" transform="translate(200.78 200.78)" fill="#fff" opacity="0.46"/></g><g transform="matrix(1, 0, 0, 1, -200.47, -200.47)" filter="url(#e)"><circle cx="325" cy="325" r="325" transform="translate(257.78 257.78)" fill="#fff"/></g></g></g></svg>