<svg xmlns="http://www.w3.org/2000/svg" width="27.166" height="40.685" viewBox="0 0 27.166 40.685"><g transform="translate(-81.703)"><path d="M89.343,11.3l3.3-6.877,1.509-3.141L93.912.772A1.359,1.359,0,0,0,92.686,0H83.063a1.359,1.359,0,0,0-1.226,1.948l6,12.489Z" fill="#555759"/><path d="M190.642.636A1.362,1.362,0,0,0,189.491,0h-9.622a1.359,1.359,0,0,0-1.226.772l-7.43,15.472c-.005.012-.007.024-.012.036s-.017.056-.028.084a1.356,1.356,0,0,0-.082.41c0,.02-.012.037-.012.059v.7a13.265,13.265,0,0,1,12.342,0v-.393l7.3-15.193A1.362,1.362,0,0,0,190.642.636Z" transform="translate(-81.981 0)" fill="#555759"/><path d="M120.176,218.186A11.317,11.317,0,1,0,131.492,229.5,11.317,11.317,0,0,0,120.176,218.186Zm6.727,9.342-3.021,2.947a.4.4,0,0,0-.116.356l.713,4.161a.405.405,0,0,1-.161.393.4.4,0,0,1-.422.031l-3.737-1.964a.4.4,0,0,0-.375,0l-3.737,1.964a.4.4,0,0,1-.583-.423l.713-4.161a.4.4,0,0,0-.116-.356l-3.021-2.947a.4.4,0,0,1,.222-.685l4.179-.607a.4.4,0,0,0,.3-.22l1.869-3.785a.4.4,0,0,1,.72,0l1.869,3.785a.4.4,0,0,0,.3.22l4.179.607a.4.4,0,0,1,.222.685Z" transform="translate(-24.908 -200.135)" fill="#555759"/></g></svg>