<svg xmlns="http://www.w3.org/2000/svg" width="78" height="78" viewBox="0 0 78 78"><g transform="translate(-521 -513)"><circle cx="39" cy="39" r="39" transform="translate(521 513)" fill="#fff" opacity="0.26"/><g transform="translate(538.672 532.513)"><path d="M18.509,143.3l3.619,3.619L6.065,162.986l-3.619-3.619Zm4.381,2.857-3.619-3.619,6.221-6.222,3.62,3.619Z" transform="translate(0 -124.012)" fill="#fff"/><path d="M346.221,139.963H347.3V136.6h3.36v-1.077H347.3v-3.36h-1.077v3.36h-3.359V136.6h3.359Z" transform="translate(-309.68 -120.233)" fill="#fff"/><path d="M314.727,215.718v-1.078h-3.36v-3.36H310.29v3.36h-3.36v1.078h3.36v3.36h1.077v-3.36Z" transform="translate(-276.992 -192.204)" fill="#fff"/><path d="M224.4,3.36h-3.36V0h-1.078V3.36H216.6V4.437h3.359V7.8h1.078V4.437h3.36Z" transform="translate(-194.821)" fill="#fff"/><path d="M145.292,39.292h-3.36v-3.36h-1.077v3.36h-3.36v1.077h3.36v3.36h1.077v-3.36h3.36Z" transform="translate(-122.855 -32.688)" fill="#fff"/></g></g></svg>