<svg xmlns="http://www.w3.org/2000/svg" width="44.209" height="34.629" viewBox="0 0 44.209 34.629"><g transform="translate(0 -4.225)"><path d="M32.026,23.835a2.068,2.068,0,0,1-1.814,1.134H13.991a2.07,2.07,0,0,1-1.813-1.134,2.43,2.43,0,0,1,0-2.267l4.056-7.608a2.066,2.066,0,0,1,1.813-1.134h8.108a2.07,2.07,0,0,1,1.813,1.134l4.056,7.608A2.424,2.424,0,0,1,32.026,23.835Zm-11.9,11.619-4.055-7.607a2.069,2.069,0,0,0-1.813-1.134H6.147a2.067,2.067,0,0,0-1.811,1.134L.28,35.454a2.43,2.43,0,0,0,0,2.267,2.067,2.067,0,0,0,1.813,1.134H18.311a2.069,2.069,0,0,0,1.813-1.134A2.43,2.43,0,0,0,20.124,35.454Zm23.8,0-4.056-7.607a2.067,2.067,0,0,0-1.811-1.134H29.95a2.069,2.069,0,0,0-1.813,1.134l-4.055,7.607a2.43,2.43,0,0,0,0,2.267,2.066,2.066,0,0,0,1.811,1.134h16.22a2.069,2.069,0,0,0,1.814-1.134A2.427,2.427,0,0,0,43.927,35.454ZM36.406,13.569l-.724,3.394-3.4.723,3.4.722.724,3.394.723-3.394,3.4-.722-3.4-.723ZM10.075,9.609,9.352,13l-3.4.723,3.4.722.723,3.394.723-3.394,3.4-.722L10.8,13ZM27.362,4.225l-.724,3.393-3.4.723,3.4.723.724,3.394.723-3.394,3.4-.722-3.4-.723Z" fill="#ff6c2b"/></g></svg>