<svg xmlns="http://www.w3.org/2000/svg" width="40.165" height="41.438" viewBox="0 0 40.165 41.438"><g transform="translate(-3.518)"><path d="M65.984,51.743a10.732,10.732,0,0,0-10.72,10.72,10.586,10.586,0,0,0,2.293,6.609c.3.377.607.738.936,1.12l.018.021a10.45,10.45,0,0,1,2.438,3.8,6.651,6.651,0,0,1,.1,1.434v.819A1.357,1.357,0,0,0,62.4,77.624h7.106a1.357,1.357,0,0,0,1.357-1.357v-.829a5.779,5.779,0,0,1,.094-1.327,11.7,11.7,0,0,1,2.573-3.981l.044-.052c.3-.348.577-.678.832-1a10.585,10.585,0,0,0,2.3-6.613A10.732,10.732,0,0,0,65.984,51.743ZM72.275,67.4c-.223.284-.487.594-.766.922l-.055.064a13.652,13.652,0,0,0-3.113,5.006,6.109,6.109,0,0,0-.187,1.52h-4.4a6.443,6.443,0,0,0-.187-1.606,12.866,12.866,0,0,0-3-4.863l-.018-.021c-.308-.358-.6-.7-.859-1.025a7.9,7.9,0,0,1-1.712-4.931,8.006,8.006,0,1,1,16.011,0A7.9,7.9,0,0,1,72.275,67.4Z" transform="translate(-42.383 -42.381)" fill="#078241"/><path d="M95.676,196.91H88.57a1.357,1.357,0,1,0,0,2.714h7.106a1.357,1.357,0,1,0,0-2.714Z" transform="translate(-68.551 -161.282)" fill="#078241"/><path d="M101.941,214.018H98.388a1.357,1.357,0,1,0,0,2.714h3.553a1.357,1.357,0,1,0,0-2.714Z" transform="translate(-76.593 -175.294)" fill="#078241"/><path d="M190.665,103.491h-4.681a1.357,1.357,0,1,0,0,2.714h4.681a1.357,1.357,0,0,0,0-2.714Z" transform="translate(-148.34 -84.766)" fill="#078241"/><path d="M10.914,104.848a1.357,1.357,0,0,0-1.357-1.357H4.875a1.357,1.357,0,0,0,0,2.714H9.557A1.357,1.357,0,0,0,10.914,104.848Z" transform="translate(0 -84.766)" fill="#078241"/><path d="M108.367,7.4a1.357,1.357,0,0,0,1.357-1.357V1.357a1.357,1.357,0,0,0-2.714,0V6.04A1.357,1.357,0,0,0,108.367,7.4Z" transform="translate(-84.766)" fill="#078241"/><path d="M164.206,158.769a1.357,1.357,0,1,0-1.919,1.919L165.6,164a1.357,1.357,0,0,0,1.919-1.919Z" transform="translate(-129.716 -129.716)" fill="#078241"/><path d="M37.539,35.937a1.357,1.357,0,0,0,1.919-1.919l-3.309-3.31a1.357,1.357,0,1,0-1.919,1.919Z" transform="translate(-24.829 -24.826)" fill="#078241"/><path d="M37.54,158.77l-3.311,3.311A1.357,1.357,0,0,0,36.149,164l3.311-3.311a1.357,1.357,0,1,0-1.919-1.919Z" transform="translate(-24.829 -129.717)" fill="#078241"/><path d="M163.251,36.335a1.353,1.353,0,0,0,.96-.4l3.31-3.31a1.357,1.357,0,0,0-1.919-1.919l-3.31,3.31a1.357,1.357,0,0,0,.96,2.316Z" transform="translate(-129.72 -24.826)" fill="#078241"/></g></svg>