<svg xmlns="http://www.w3.org/2000/svg" width="26" height="26" viewBox="0 0 26 26"><g transform="translate(-54 -952)"><circle cx="13" cy="13" r="13" transform="translate(54 952)" fill="#ff6c2b"/><path d="M10.6.528,8.366.012a.519.519,0,0,0-.591.3L6.744,2.717a.514.514,0,0,0,.148.6l1.3,1.066A7.963,7.963,0,0,1,4.387,8.192L3.321,6.89a.515.515,0,0,0-.6-.148L.313,7.773a.522.522,0,0,0-.3.593L.528,10.6a.515.515,0,0,0,.5.4A9.968,9.968,0,0,0,11,1.031.515.515,0,0,0,10.6.528Z" transform="translate(61 960.001)" fill="#fff"/></g></svg>