<svg xmlns="http://www.w3.org/2000/svg" width="46" height="46" viewBox="0 0 46 46"><path d="M7901-7395a22.847,22.847,0,0,1-16.262-6.737A22.849,22.849,0,0,1,7878-7418a22.846,22.846,0,0,1,6.737-16.262A22.846,22.846,0,0,1,7901-7441a22.849,22.849,0,0,1,16.264,6.737A22.847,22.847,0,0,1,7924-7418a22.849,22.849,0,0,1-6.737,16.264A22.851,22.851,0,0,1,7901-7395Zm-13-14.527h0a15.053,15.053,0,0,0,8.159,2.383,14.968,14.968,0,0,0,15.114-15.114c0-.227,0-.461-.016-.692a11.344,11.344,0,0,0,2.665-2.746,10.628,10.628,0,0,1-3.061.823,5.3,5.3,0,0,0,2.336-2.927,10.586,10.586,0,0,1-3.373,1.283,5.264,5.264,0,0,0-3.882-1.679,5.319,5.319,0,0,0-5.312,5.314,6,6,0,0,0,.131,1.215,15.128,15.128,0,0,1-10.953-5.558,5.262,5.262,0,0,0-.724,2.681,5.311,5.311,0,0,0,2.369,4.425,5.373,5.373,0,0,1-2.4-.674v.066a5.335,5.335,0,0,0,4.26,5.214,5.653,5.653,0,0,1-1.4.181,6.585,6.585,0,0,1-1-.083,5.326,5.326,0,0,0,4.968,3.685,10.6,10.6,0,0,1-6.6,2.269A10.845,10.845,0,0,1,7888-7409.527Z" transform="translate(-7878 7441)" fill="#303030"/></svg>