<svg xmlns="http://www.w3.org/2000/svg" width="29.5" height="29.5" viewBox="0 0 29.5 29.5"><g transform="translate(0 18.964)"><path d="M2.25,27H20.161v2.107H2.25Z" transform="translate(-2.25 -22.786)" fill="#ff6c2b"/><path d="M28.125,27h5.268v2.107H28.125Z" transform="translate(-3.893 -22.786)" fill="#ff6c2b"/><path d="M26.714,30.9a2.124,2.124,0,0,1-2.107,2.14h0A2.124,2.124,0,0,1,22.5,30.9V24.64a2.124,2.124,0,0,1,2.107-2.14h0a2.124,2.124,0,0,1,2.107,2.14Z" transform="translate(-3.536 -22.5)" fill="#ff6c2b"/></g><g transform="translate(0 9.482)"><path d="M2.25,16.875H7.518v2.107H2.25Z" transform="translate(-2.25 -12.661)" fill="#ff6c2b"/><path d="M14.625,16.875H32.536v2.107H14.625Z" transform="translate(-3.036 -12.661)" fill="#ff6c2b"/><path d="M13.214,20.771a2.124,2.124,0,0,1-2.107,2.14h0A2.124,2.124,0,0,1,9,20.771V14.515a2.124,2.124,0,0,1,2.107-2.14h0a2.124,2.124,0,0,1,2.107,2.14Z" transform="translate(-2.679 -12.375)" fill="#ff6c2b"/></g><path d="M2.25,6.75H20.161V8.857H2.25Z" transform="translate(-2.25 -2.536)" fill="#ff6c2b"/><path d="M28.125,6.75h5.268V8.857H28.125Z" transform="translate(-3.893 -2.536)" fill="#ff6c2b"/><path d="M26.714,10.646a2.124,2.124,0,0,1-2.107,2.14h0a2.124,2.124,0,0,1-2.107-2.14V4.39a2.124,2.124,0,0,1,2.107-2.14h0a2.124,2.124,0,0,1,2.107,2.14Z" transform="translate(-3.536 -2.25)" fill="#ff6c2b"/></svg>