<svg xmlns="http://www.w3.org/2000/svg" width="18.565" height="30.5" viewBox="0 0 18.565 30.5"><path d="M10.152,32H12.8V29.348H10.152Zm6.63-14.587a3.962,3.962,0,0,0,3.965-3.978l.013-7.957a3.978,3.978,0,1,0-7.957,0v7.957A3.973,3.973,0,0,0,16.783,17.413ZM15.457,32h2.652V29.348H15.457Zm5.3,0h2.652V29.348H20.761Zm5.3-18.565H23.811A6.881,6.881,0,0,1,16.783,20.2a6.881,6.881,0,0,1-7.028-6.763H7.5a9.261,9.261,0,0,0,7.957,8.911V26.7h2.652v-4.35A9.261,9.261,0,0,0,26.065,13.435Z" transform="translate(-7.5 -1.5)" fill="#ff6c2b"/></svg>