<svg xmlns="http://www.w3.org/2000/svg" width="40" height="40" viewBox="0 0 40 40"><g transform="translate(-1185 -696)"><g transform="translate(1201 712)" fill="#ff6c2b"><path d="M 4 7.5 C 2.070090055465698 7.5 0.5 5.929910182952881 0.5 4 C 0.5 2.070090055465698 2.070090055465698 0.5 4 0.5 C 5.929910182952881 0.5 7.5 2.070090055465698 7.5 4 C 7.5 5.929910182952881 5.929910182952881 7.5 4 7.5 Z" stroke="none"/><path d="M 4 1 C 2.345789909362793 1 1 2.345789909362793 1 4 C 1 5.654210090637207 2.345789909362793 7 4 7 C 5.654210090637207 7 7 5.654210090637207 7 4 C 7 2.345789909362793 5.654210090637207 1 4 1 M 4 0 C 6.209139823913574 0 8 1.790860176086426 8 4 C 8 6.209139823913574 6.209139823913574 8 4 8 C 1.790860176086426 8 0 6.209139823913574 0 4 C 0 1.790860176086426 1.790860176086426 0 4 0 Z" stroke="none" fill="#ff6c2b"/></g><g transform="translate(1196 707)" fill="none" stroke="#ff6c2b" stroke-width="1"><circle cx="9" cy="9" r="9" stroke="none"/><circle cx="9" cy="9" r="8.5" fill="none"/></g><g transform="translate(1191 702)" fill="none" stroke="#ff6c2b" stroke-width="1" opacity="0.34"><circle cx="14" cy="14" r="14" stroke="none"/><circle cx="14" cy="14" r="13.5" fill="none"/></g><g transform="translate(1185 696)" fill="none" stroke="#ff6c2b" stroke-width="1" opacity="0.07"><circle cx="20" cy="20" r="20" stroke="none"/><circle cx="20" cy="20" r="19.5" fill="none"/></g></g></svg>