<?xml version="1.0" encoding="UTF-8" standalone="no"?>
<svg
   xmlns:dc="http://purl.org/dc/elements/1.1/"
   xmlns:cc="http://creativecommons.org/ns#"
   xmlns:rdf="http://www.w3.org/1999/02/22-rdf-syntax-ns#"
   xmlns:svg="http://www.w3.org/2000/svg"
   xmlns="http://www.w3.org/2000/svg"
   xmlns:sodipodi="http://sodipodi.sourceforge.net/DTD/sodipodi-0.dtd"
   xmlns:inkscape="http://www.inkscape.org/namespaces/inkscape"
   version="1.1"
   id="Capa_1"
   x="0px"
   y="0px"
   width="544.68px"
   height="544.68px"
   viewBox="0 0 544.68 544.68"
   style="enable-background:new 0 0 544.68 544.68;"
   xml:space="preserve"
   sodipodi:docname="attcPaisaje.svg"
   inkscape:version="1.0 (4035a4fb49, 2020-05-01)"><metadata
   id="metadata43"><rdf:RDF><cc:Work
       rdf:about=""><dc:format>image/svg+xml</dc:format><dc:type
         rdf:resource="http://purl.org/dc/dcmitype/StillImage" /></cc:Work></rdf:RDF></metadata><defs
   id="defs41" /><sodipodi:namedview
   inkscape:document-rotation="0"
   pagecolor="#ffffff"
   bordercolor="#666666"
   borderopacity="1"
   objecttolerance="10"
   gridtolerance="10"
   guidetolerance="10"
   inkscape:pageopacity="0"
   inkscape:pageshadow="2"
   inkscape:window-width="1366"
   inkscape:window-height="706"
   id="namedview39"
   showgrid="false"
   inkscape:zoom="0.75793963"
   inkscape:cx="272.34"
   inkscape:cy="282.25252"
   inkscape:window-x="-8"
   inkscape:window-y="124"
   inkscape:window-maximized="1"
   inkscape:current-layer="Capa_1" />
<g
   transform="matrix(0.8788861,0,0,0.83831296,30.345425,25.970999)"
   id="g6">
	<g
   id="g4">
		<path
   d="M 514.08,88.74 H 30.6 C 13.703,88.74 0,102.443 0,119.34 v 306 c 0,16.898 13.703,30.6 30.6,30.6 h 483.48 c 16.897,0 30.6,-13.701 30.6,-30.6 v -306 c 0,-16.897 -13.702,-30.6 -30.6,-30.6 z M 267.982,416.602 H 164.524 72.418 c -16.897,0 -20.912,-9.689 -8.96,-21.641 l 85.105,-85.105 c 5.973,-5.973 13.807,-8.959 21.64,-8.959 7.833,0 15.661,2.986 21.64,8.959 l 24.413,24.414 60.692,60.691 c 11.947,11.951 7.938,21.641 -8.966,21.641 z M 103.018,146.88 c 27.039,0 48.96,21.922 48.96,48.96 0,27.038 -21.922,48.96 -48.96,48.96 -27.038,0 -48.96,-21.922 -48.96,-48.96 0,-27.038 21.921,-48.96 48.96,-48.96 z M 494.122,416.602 H 300.51 c 2.173,-5.754 4.713,-19.328 -10.581,-34.621 l -60.692,-60.693 78.446,-78.445 c 11.952,-11.952 31.322,-11.952 43.274,0 l 152.125,152.125 c 11.952,11.944 7.938,21.634 -8.96,21.634 z"
   id="path2" />
	</g>
</g>
<g
   id="g8">
</g>
<g
   id="g10">
</g>
<g
   id="g12">
</g>
<g
   id="g14">
</g>
<g
   id="g16">
</g>
<g
   id="g18">
</g>
<g
   id="g20">
</g>
<g
   id="g22">
</g>
<g
   id="g24">
</g>
<g
   id="g26">
</g>
<g
   id="g28">
</g>
<g
   id="g30">
</g>
<g
   id="g32">
</g>
<g
   id="g34">
</g>
<g
   id="g36">
</g>
<rect
   style="fill:#000000;stroke:#000000;stroke-width:6.96757;stroke-linecap:square;stroke-linejoin:round;stroke-miterlimit:4;stroke-dasharray:none;paint-order:markers fill stroke"
   id="rect868"
   width="538.63422"
   height="129.83232"
   x="5.0003772"
   y="0" /><rect
   style="fill:#000000;stroke:#000000;stroke-width:7;stroke-linecap:square;stroke-linejoin:round;stroke-miterlimit:4;stroke-dasharray:none;paint-order:markers fill stroke"
   id="rect870"
   width="15.097559"
   height="8.8069096"
   x="462.99179"
   y="101.90852" /><rect
   y="405.3833"
   x="3.6171114"
   height="133.88263"
   width="541.31042"
   id="rect868-2"
   style="fill:#000000;stroke:#000000;stroke-width:7.25948;stroke-linecap:square;stroke-linejoin:round;stroke-miterlimit:4;stroke-dasharray:none;paint-order:markers fill stroke" /><rect
   y="109.5074"
   x="5.2774653"
   height="379.97748"
   width="40.900356"
   id="rect850"
   style="fill:#000000;stroke:#000000;stroke-width:7;stroke-linecap:square;stroke-linejoin:round;paint-order:markers fill stroke" /><rect
   y="88.397545"
   x="488.16553"
   height="405.04544"
   width="55.413395"
   id="rect852"
   style="fill:#000000;stroke:#000000;stroke-width:7;stroke-linecap:square;stroke-linejoin:round;paint-order:markers fill stroke" /></svg>
