<?xml version="1.0" standalone="no"?>
<!DOCTYPE svg PUBLIC "-//W3C//DTD SVG 20010904//EN"
 "http://www.w3.org/TR/2001/REC-SVG-20010904/DTD/svg10.dtd">
<svg version="1.0" xmlns="http://www.w3.org/2000/svg"
 width="126.000000pt" height="126.000000pt" viewBox="0 0 126.000000 126.000000"
 preserveAspectRatio="xMidYMid meet">
<metadata>
Created by potrace 1.16, written by Peter Selinger 2001-2019
</metadata>
<g transform="translate(0.000000,126.000000) scale(0.100000,-0.100000)"
fill="#000000" stroke="none">
<path d="M617 1115 c-68 -24 -110 -99 -111 -197 -1 -56 2 -70 19 -82 11 -9 23
-16 28 -16 4 0 7 36 7 81 0 68 -2 80 -15 75 -20 -7 -20 32 0 58 17 22 101 66
127 66 26 0 112 -39 125 -57 7 -9 15 -14 19 -11 12 12 -40 67 -78 83 -46 18
-71 18 -121 0z"/>
<path d="M570 770 c0 -6 7 -13 15 -16 9 -4 15 -19 15 -39 0 -26 -8 -39 -37
-62 -31 -25 -35 -34 -29 -57 4 -16 19 -34 38 -44 49 -26 88 -68 88 -94 0 -13
5 -30 10 -38 7 -11 11 -4 16 28 7 44 20 58 94 105 49 32 51 61 6 102 -29 26
-36 40 -36 70 0 32 -2 36 -15 25 -8 -7 -12 -16 -9 -21 9 -15 -6 -70 -17 -63
-6 3 -7 19 -4 35 6 28 5 29 -29 29 -33 0 -36 -2 -36 -29 0 -17 -4 -33 -10 -36
-5 -3 -10 -15 -10 -26 0 -21 -8 -23 -29 -10 -10 7 -9 12 8 24 17 11 20 21 16
40 -4 14 -2 28 4 31 7 5 6 15 -5 32 -16 24 -44 33 -44 14z"/>
<path d="M447 599 c-21 -22 -51 -42 -67 -45 -21 -5 -32 -15 -39 -37 -16 -45
-15 -47 29 -47 33 0 38 3 33 17 -4 11 -3 14 5 9 6 -4 14 -23 18 -43 7 -36 7
-35 41 58 19 52 35 100 36 108 4 27 -18 19 -56 -20z"/>
<path d="M860 620 c0 -6 -5 -8 -12 -4 -7 5 -8 3 -3 -7 5 -7 23 -56 41 -109 34
-102 52 -124 114 -135 19 -3 31 -3 25 2 -13 10 -35 50 -35 63 0 5 9 10 20 10
32 0 23 18 -19 40 -43 22 -83 68 -98 114 -9 30 -33 48 -33 26z"/>
<path d="M630 200 c-36 -30 -93 -55 -107 -47 -5 3 -8 -18 -9 -46 0 -29 -4 -61
-8 -73 -7 -19 -3 -22 30 -27 20 -4 41 -4 46 -1 4 3 8 25 8 50 0 24 4 44 9 44
5 0 7 8 4 19 -7 27 37 74 71 74 33 0 66 -30 70 -64 2 -13 6 -31 9 -39 3 -8 7
-28 9 -45 2 -18 8 -29 16 -27 7 1 21 4 32 5 30 5 33 13 21 50 -8 24 -9 42 -1
61 9 24 8 26 -13 21 -16 -5 -40 5 -84 34 -33 23 -62 41 -64 41 -2 0 -20 -14
-39 -30z"/>
</g>
</svg>
