<?xml version="1.0" encoding="utf-8"?>
<!-- Generator: Adobe Illustrator 23.0.3, SVG Export Plug-In . SVG Version: 6.00 Build 0)  -->
<svg version="1.1" id="Layer_1" xmlns="http://www.w3.org/2000/svg" xmlns:xlink="http://www.w3.org/1999/xlink" x="0px" y="0px"
	 viewBox="0 0 1024 1024" style="enable-background:new 0 0 1024 1024;" xml:space="preserve">
<style type="text/css">
	.st0{fill:#FFFFFF;}
</style>
<title></title>
<g id="icomoon-ignore">
</g>
<path class="st0" d="M490.6,0C220.6,0,0.5,219.6,0,489.7C-0.3,620.8,50.5,744.1,143,837c92.5,92.8,215.6,144.1,346.7,144.3h0.9
	c270,0,490.1-219.7,490.7-489.8C981.8,221.1,762.2,0.5,490.6,0L490.6,0z M490.7,960L490.7,960L490.7,960L490.7,960z M686.4,657
	c8.3,8.3,8.2,21.8-0.1,30.2c-4.2,4.2-9.6,6.2-15.1,6.2s-11-2.1-15.1-6.2L490.5,520.9L324.3,686.5c-4.2,4.2-9.6,6.2-15.1,6.2
	s-10.9-2.1-15.1-6.2c-8.3-8.4-8.3-21.9,0-30.2l166.2-165.6L294.8,324.4c-8.3-8.4-8.3-21.9,0.1-30.2c8.3-8.4,21.8-8.4,30.2,0
	l165.6,166.2l166.2-165.6c8.3-8.3,21.9-8.3,30.2,0c8.3,8.3,8.3,21.8,0,30.2L520.8,490.7L686.4,657L686.4,657z"/>
</svg>
