<?xml version="1.0" encoding="UTF-8" standalone="no"?>
<svg width="47px" height="40px" viewBox="0 0 47 40" version="1.1" xmlns="http://www.w3.org/2000/svg" xmlns:xlink="http://www.w3.org/1999/xlink">
    <!-- Generator: Sketch 50.2 (55047) - http://www.bohemiancoding.com/sketch -->
    <title>Combined Shape</title>
    <desc>Created with Sketch.</desc>
    <defs></defs>
    <g id="Page-1" stroke="none" stroke-width="1" fill="none" fill-rule="evenodd">
        <g id="Artboard" transform="translate(-974.000000, -665.000000)" fill="#FFFFFF">
            <path d="M1020.38551,692.980434 L1020.42538,692.980555 L1020.42538,705 L1007.86715,695.683769 L974,695.683769 L974,665 L1020.38551,665 L1020.38551,692.980434 Z M989.450257,679.565823 C989.450257,678.16471 988.304154,677.031137 986.892026,677.031137 C985.477899,677.031137 984.331796,678.16471 984.331796,679.565823 C984.331796,680.966935 985.477899,682.100509 986.892026,682.100509 C988.304154,682.100509 989.450257,680.966935 989.450257,679.565823 Z M999.687378,679.565823 C999.687378,678.16471 998.541274,677.031137 997.129147,677.031137 C995.71502,677.031137 994.568917,678.16471 994.568917,679.565823 C994.568917,680.966935 995.71502,682.100509 997.129147,682.100509 C998.541274,682.100509 999.687378,680.966935 999.687378,679.565823 Z M1010.05751,679.565823 C1010.05751,678.16471 1008.91141,677.031137 1007.49928,677.031137 C1006.08515,677.031137 1004.93905,678.16471 1004.93905,679.565823 C1004.93905,680.966935 1006.08515,682.100509 1007.49928,682.100509 C1008.91141,682.100509 1010.05751,680.966935 1010.05751,679.565823 Z" id="Combined-Shape"></path>
        </g>
    </g>
</svg>