<?xml version="1.0" encoding="UTF-8" standalone="no"?>
<svg width="47px" height="40px" viewBox="0 0 47 40" version="1.1" xmlns="http://www.w3.org/2000/svg" xmlns:xlink="http://www.w3.org/1999/xlink">
    <!-- Generator: Sketch 50.2 (55047) - http://www.bohemiancoding.com/sketch -->
    <title>Combined Shape</title>
    <desc>Created with Sketch.</desc>
    <defs></defs>
    <g id="Page-1" stroke="none" stroke-width="1" fill="none" fill-rule="evenodd">
        <g id="Artboard" transform="translate(-848.000000, -665.000000)" fill="#C32230">
            <path d="M894.385506,692.980434 L894.425377,692.980555 L894.425377,705 L881.867149,695.683769 L848,695.683769 L848,665 L894.385506,665 L894.385506,692.980434 Z M863.450257,679.565823 C863.450257,678.16471 862.304154,677.031137 860.892026,677.031137 C859.477899,677.031137 858.331796,678.16471 858.331796,679.565823 C858.331796,680.966935 859.477899,682.100509 860.892026,682.100509 C862.304154,682.100509 863.450257,680.966935 863.450257,679.565823 Z M873.687378,679.565823 C873.687378,678.16471 872.541274,677.031137 871.129147,677.031137 C869.71502,677.031137 868.568917,678.16471 868.568917,679.565823 C868.568917,680.966935 869.71502,682.100509 871.129147,682.100509 C872.541274,682.100509 873.687378,680.966935 873.687378,679.565823 Z M884.057511,679.565823 C884.057511,678.16471 882.911407,677.031137 881.49928,677.031137 C880.085153,677.031137 878.93905,678.16471 878.93905,679.565823 C878.93905,680.966935 880.085153,682.100509 881.49928,682.100509 C882.911407,682.100509 884.057511,680.966935 884.057511,679.565823 Z" id="Combined-Shape"></path>
        </g>
    </g>
</svg>