<svg xmlns="http://www.w3.org/2000/svg" width="138.307" height="121.936" viewBox="0 0 138.307 121.936"><g transform="translate(-12 -41)"><g transform="translate(12 41)"><path d="M114.488,151.42a20.985,20.985,0,0,1-11.8-3.726,5.947,5.947,0,0,0-6.464,0c-8.27,5.617-18.657,4.77-26.25-2.089a5.75,5.75,0,0,0-7.706,0,21.472,21.472,0,0,1-14.452,5.843c-13.379,0-24.274-13.125-24.274-29.27,0-11.742,5.815-22.3,14.819-26.927a5.776,5.776,0,0,0,3.02-6.294,34.613,34.613,0,0,1-.762-7.085c0-16.145,10.9-29.27,24.274-29.27,9.061,0,17.359,6.04,21.536,15.835,2.173,5.081,6.774,3.528,8.185,2.681a20.731,20.731,0,0,1,10.472-2.907c13.069,0,23.964,12.843,24.246,28.621a5.767,5.767,0,0,0,1.5,3.754,32.37,32.37,0,0,1,7.96,21.621C138.79,138.266,127.9,151.42,114.488,151.42ZM140.766,94.4c-1.355-21.367-16.681-37.794-35.677-37.794A31.882,31.882,0,0,0,94.307,58.5C87.645,47.577,76.807,41,64.867,41,45.109,41,29.048,59.319,29.048,81.815a49.1,49.1,0,0,0,.31,5.335C18.718,94.432,12,107.726,12,122.121c0,22.524,16.061,40.815,35.819,40.815a32.143,32.143,0,0,0,18.319-5.758,31.876,31.876,0,0,0,33.335,1.976,32.117,32.117,0,0,0,15.016,3.782c19.758,0,35.819-18.319,35.819-40.815a43.769,43.769,0,0,0-9.54-27.718Z" transform="translate(-12 -41)" fill="#ff6c2b"/><path d="M191.629,207.039l-28.875,30L148.9,222.507a5.77,5.77,0,1,0-8.355,7.96l18.008,18.883a6.215,6.215,0,0,0,8.327.028L199.9,215.055a5.759,5.759,0,1,0-8.27-8.016Z" transform="translate(-103.113 -158.914)" fill="#ff6c2b"/></g></g></svg>