<svg xmlns="http://www.w3.org/2000/svg" width="46" height="46" viewBox="0 0 46 46"><path d="M7901-7395a22.847,22.847,0,0,1-16.262-6.737A22.849,22.849,0,0,1,7878-7418a22.846,22.846,0,0,1,6.737-16.262A22.846,22.846,0,0,1,7901-7441a22.849,22.849,0,0,1,16.264,6.737A22.847,22.847,0,0,1,7924-7418a22.849,22.849,0,0,1-6.737,16.264A22.851,22.851,0,0,1,7901-7395Zm0-31.932c-.083,0-8.262.006-10.3.553a3.319,3.319,0,0,0-2.331,2.347,35.041,35.041,0,0,0-.549,6.383,35.046,35.046,0,0,0,.549,6.384,3.252,3.252,0,0,0,2.331,2.309c2.033.546,10.213.553,10.3.553s8.267-.006,10.3-.553a3.252,3.252,0,0,0,2.331-2.309,35.046,35.046,0,0,0,.549-6.384,35.041,35.041,0,0,0-.549-6.383,3.319,3.319,0,0,0-2.331-2.347C7909.266-7426.925,7901.082-7426.932,7901-7426.932Zm-2.695,13.2v-7.837l6.889,3.919-6.888,3.917Z" transform="translate(-7878 7441)" fill="#303030"/></svg>