<svg xmlns="http://www.w3.org/2000/svg" width="46" height="46" viewBox="0 0 46 46"><path d="M7901-7395a22.847,22.847,0,0,1-16.262-6.737A22.849,22.849,0,0,1,7878-7418a22.846,22.846,0,0,1,6.737-16.262A22.846,22.846,0,0,1,7901-7441a22.849,22.849,0,0,1,16.264,6.737A22.847,22.847,0,0,1,7924-7418a22.849,22.849,0,0,1-6.737,16.264A22.851,22.851,0,0,1,7901-7395Zm3.681-23.327c2.309,0,2.309,2.189,2.309,3.788v6.962h4.433l0-7.857c0-3.535-.645-6.806-5.322-6.806a4.7,4.7,0,0,0-4.2,2.311h-.062v-1.951h-4.26v14.3h4.437v-7.082C7902.015-7416.472,7902.332-7418.327,7904.68-7418.327Zm-14.327-3.552v14.3h4.443v-14.3Zm2.22-7.122a2.575,2.575,0,0,0-2.574,2.571,2.589,2.589,0,0,0,2.574,2.6,2.587,2.587,0,0,0,2.571-2.6A2.574,2.574,0,0,0,7892.573-7429Z" transform="translate(-7878 7441)" fill="#303030"/></svg>